<?xml version="1.0" encoding="UTF-8"?>
<svg id="Layer_1" data-name="Layer 1" xmlns="http://www.w3.org/2000/svg" viewBox="0 0 960 960">
  <defs>
    <style>
      .cls-1 {
        fill: #c2c1c1;
      }

      .cls-1, .cls-2 {
        stroke-width: 0px;
      }

      .cls-2 {
        fill: #03428b;
      }
    </style>
  </defs>
  <g>
    <path class="cls-1" d="M645.88,381.34c-2.33,2.36-4.61,4.76-6.98,7.06-18.58,18.02-34.03,38.38-46.02,61.35-10.26,19.65-17.54,40.39-22.86,61.85-.46,1.85-1.28,2.2-2.95,2.2-55.76-.05-111.52-.06-167.28-.08-.82,0-1.63,0-2.79,0,.21-1.1.31-1.89.52-2.65,8.89-32.43,17.8-64.86,26.68-97.29,2.96-10.81,5.86-21.63,8.79-32.45,70.97,0,141.93,0,212.9,0ZM562.84,437.45c9.16,0,16.68-7.73,16.69-17.15,0-8.73-7.64-16.28-16.52-16.3-9.16-.02-17.17,7.71-17.14,16.55.03,9.39,7.57,16.9,16.97,16.9Z"/>
    <path class="cls-1" d="M441.27,570.45c1.32-4.33,2.52-8.54,3.95-12.67.2-.59,1.48-1.15,2.26-1.15,18.65-.06,37.3-.04,55.95-.04,17.82,0,35.63,0,53.45,0,.67,0,1.34.06,2.29.1-.99,4.44-1.88,8.71-2.96,12.94-.12.45-1.23.92-1.89.93-5,.08-10.01,0-15.01.06-8.16.09-16.32.37-24.49.35-10.37-.02-20.75-.31-31.12-.36-13.69-.06-27.39,0-41.08,0-.36,0-.72-.07-1.35-.14Z"/>
    <path class="cls-1" d="M450.33,542.1c1.18-4.33,2.13-8.22,3.36-12.01.2-.61,1.63-1.15,2.5-1.16,13.94-.08,27.88-.08,41.81-.09,21.82,0,43.63,0,65.45,0,.81,0,1.63,0,2.69,0-1,4.25-1.85,8.23-2.94,12.15-.17.61-1.43,1.3-2.18,1.3-17.42.06-34.84.02-52.27,0-18.26-.01-36.51-.01-54.77-.03-1.1,0-2.2-.1-3.66-.18Z"/>
  </g>
  <path class="cls-2" d="M251.43,515.37c1.83-6.71,3.56-13.02,5.39-19.73-4.53,0-8.68-.06-12.82.08-.51.02-1.25,1.03-1.44,1.71-1.47,5.25-2.86,10.51-4.18,15.8-.38,1.52-.94,2.33-2.72,2.3-14.71-.2-29.41-.32-44.12-.47-1.13-.01-2.25-.15-3.57-.25.09-.72.1-1.3.24-1.85,8.28-30.39,16.57-60.78,24.86-91.17,1.67-6.14,3.33-12.28,5-18.41,3.46-12.73,13.37-20.83,26.61-21.06,17.51-.29,35.02-.21,52.54-.19,9.17,0,18.36-.1,27.5.43,10.24.59,14.25,6.56,11.58,16.68-4.22,16.03-8.58,32.02-12.93,48.01-5.82,21.4-11.67,42.8-17.56,64.19-1.5,5.43-.55,4.69-5.94,4.67-15.01-.06-30.02-.28-45.03-.46-1.04-.01-2.08-.17-3.41-.29ZM284.9,395.64c-3.12,0-6.05,0-8.98,0-5.99,0-5.96,0-7.49,5.68-6.64,24.7-13.29,49.39-19.94,74.09-.92,3.41-1.85,6.81-2.9,10.7,4.16,0,7.94-.14,11.7.06,1.73.1,2.38-.39,2.82-2,3.25-11.75,6.61-23.47,9.89-35.2,4.94-17.63,9.85-35.27,14.89-53.33Z"/>
  <path class="cls-2" d="M57.37,513.93c.67-2.46,1.28-4.71,1.9-6.95,9.64-35.33,19.3-70.65,28.93-105.98,1.47-5.4,2.97-10.8,4.21-16.25.45-1.98,1.26-2.54,3.2-2.54,22.81.01,45.63-.06,68.44-.09,10.54-.01,21.07.02,31.61.05,1.36,0,2.74.01,4.09.16,7.88.87,11.96,6.27,10.11,14.01-2.11,8.82-4.64,17.54-7.01,26.3-4.93,18.19-9.97,36.35-14.79,54.57-1.76,6.65-5.75,11.42-11.37,14.96-4.82,3.03-10.08,4.76-15.89,4.72-13.95-.1-27.89-.07-41.84-.15-1.42,0-2.18.28-2.55,1.82-1.12,4.71-2.45,9.37-3.61,14.08-.32,1.3-.89,1.99-2.29,1.98-17.28-.14-34.56-.26-51.84-.4-.29,0-.58-.13-1.28-.29ZM120.84,482.63c4.68,0,9.13.05,13.57-.08.48-.01,1.18-1.02,1.36-1.67,5.89-20.9,11.73-41.8,17.56-62.72,2.06-7.4,4.06-14.82,6.17-22.54-4.87,0-9.53-.05-14.19.07-.52.01-1.3.98-1.48,1.64-6.7,24.58-13.34,49.18-19.99,73.78-1,3.69-1.93,7.41-3,11.51Z"/>
  <path class="cls-2" d="M314.63,515.86c1.49-5.35,2.88-10.29,4.23-15.24,10.13-37.26,20.24-74.51,30.37-111.77.28-1.02.6-2.03.9-3.05,1.05-3.58,1.05-3.56,4.69-3.56,15.77-.02,31.54-.05,47.3-.08.36,0,.72.08,1.19.13-1.4,5.37-2.76,10.63-4.13,15.88-6.61,25.33-13.22,50.67-19.83,76-3.5,13.4-7.03,26.8-10.46,40.22-.49,1.93-1.74,2.03-3.24,2.03-11.67-.03-23.35-.05-35.02-.09-4.09-.02-8.19-.1-12.28-.18-1.12-.02-2.24-.17-3.72-.28Z"/>
  <path class="cls-2" d="M299.72,571.17c1.35-5.06,2.57-9.8,3.96-14.49.14-.47,1.3-.92,1.98-.92,34.24,0,68.48.04,102.72.08,2.1,0,4.2,0,6.64,0-1.63,5.04-3.03,9.74-4.75,14.31-.26.7-1.97,1.21-3.02,1.22-10.98.14-21.97.21-32.95.21-23.03-.01-46.06-.08-69.08-.15-1.72,0-3.43-.16-5.49-.27Z"/>
  <path class="cls-2" d="M424.12,528.15c-1.53,4.72-2.82,9.07-4.42,13.29-.28.74-1.91,1.37-2.92,1.37-16.53.12-33.05.16-49.58.15-18.27,0-36.54-.08-54.81-.13-1.56,0-3.12,0-5.05,0,1.32-4.96,2.43-9.41,3.77-13.8.16-.51,1.6-.9,2.45-.9,18.95-.03,37.91,0,56.86.02,16.91,0,33.81,0,50.72,0,.82,0,1.64,0,2.97,0Z"/>
  <path class="cls-2" d="M101.1,555.88c-1.31,4.95-2.44,9.57-3.82,14.1-.2.67-1.57,1.33-2.44,1.38-3.17.18-6.36.13-9.54.11-13.55-.09-27.1-.19-40.65-.3-.74,0-1.48-.09-2.53-.16,1.01-4.07,1.9-7.93,2.95-11.76,1.01-3.69.18-3.39,4.49-3.39,16.35.02,32.71.02,49.06.02.73,0,1.45,0,2.49,0Z"/>
  <path class="cls-2" d="M49.66,542.39c1.26-4.68,2.41-9.21,3.77-13.67.19-.62,1.46-1.29,2.24-1.29,15.61,0,31.23.09,46.84.15,1.95,0,3.91,0,6.18,0-1.3,4.88-2.49,9.54-3.86,14.15-.15.52-1.29,1.07-1.98,1.07-16.98.04-33.95.01-50.93-.02-.65,0-1.3-.22-2.26-.39Z"/>
  <path class="cls-2" d="M235.91,571.15c1.36-4.97,2.55-9.5,3.89-13.99.18-.59,1.09-1.38,1.67-1.38,17.04-.02,34.09.05,51.13.11.21,0,.42.12.99.29-.97,3.63-1.82,7.28-2.95,10.84-1.41,4.46-1.52,4.44-6.28,4.44-14.01,0-28.03,0-42.04-.03-2.02,0-4.05-.17-6.4-.28Z"/>
  <path class="cls-2" d="M243.87,542.85c1.27-5,2.33-9.48,3.63-13.88.16-.53,1.58-.99,2.41-.99,12.2-.02,24.41.04,36.61.09,4.09.02,8.19.05,12.28.08.73,0,1.45,0,2.55,0-1.37,4.83-2.54,9.27-3.97,13.63-.2.59-1.72,1.06-2.64,1.06-14.63.05-29.26.02-43.89,0-2.24,0-4.47,0-6.98,0Z"/>
  <path class="cls-2" d="M172.5,571.1c1.36-5.06,2.53-9.6,3.83-14.1.15-.51,1.03-1.14,1.58-1.14,15.98-.03,31.95.01,47.93.05.21,0,.42.14.91.31-1.12,3.91-2.16,7.84-3.37,11.71-1.12,3.57-1.2,3.5-5,3.49-13.18-.03-26.35-.02-39.53-.05-2.02,0-4.03-.18-6.35-.29Z"/>
  <path class="cls-2" d="M234.38,527.83c-1.32,4.9-2.42,9.22-3.69,13.47-.19.64-1.21,1.48-1.85,1.48-15.83.03-31.65-.04-47.48-.11-.28,0-.55-.16-1.06-.31,1.22-4.58,2.36-9.1,3.69-13.56.16-.52,1.42-.99,2.17-1,11.36-.04,22.72,0,34.08.02,4.6,0,9.19,0,14.15,0Z"/>
  <g>
    <path class="cls-2" d="M592.72,570.59v-42.61h8.6v42.61h-8.6Z"/>
    <path class="cls-2" d="M609.61,570.59v-42.61h8.37l17.44,28.46v-28.46h7.99v42.61h-8.63l-17.18-27.79v27.79h-7.99Z"/>
    <path class="cls-2" d="M652.48,527.98h15.72c3.55,0,6.25.27,8.11.81,2.5.74,4.64,2.04,6.42,3.92,1.78,1.88,3.14,4.18,4.07,6.9.93,2.72,1.4,6.08,1.4,10.07,0,3.51-.44,6.53-1.31,9.07-1.07,3.1-2.59,5.61-4.56,7.53-1.49,1.45-3.51,2.59-6.05,3.4-1.9.6-4.44.9-7.62.9h-16.19v-42.61ZM661.09,535.19v28.22h6.42c2.4,0,4.14-.13,5.2-.41,1.4-.35,2.55-.94,3.47-1.77.92-.83,1.67-2.2,2.25-4.11.58-1.91.87-4.51.87-7.8s-.29-5.82-.87-7.59c-.58-1.76-1.39-3.14-2.44-4.13-1.05-.99-2.37-1.66-3.98-2.01-1.2-.27-3.56-.41-7.06-.41h-3.87Z"/>
    <path class="cls-2" d="M693.76,549.55c0-4.34.65-7.98,1.95-10.93.97-2.17,2.29-4.12,3.97-5.84,1.68-1.72,3.51-3,5.51-3.84,2.66-1.12,5.72-1.69,9.19-1.69,6.28,0,11.3,1.95,15.07,5.84,3.77,3.9,5.65,9.31,5.65,16.25s-1.87,12.26-5.61,16.15c-3.74,3.89-8.74,5.83-15,5.83s-11.38-1.93-15.12-5.8c-3.74-3.87-5.61-9.19-5.61-15.97ZM702.62,549.25c0,4.83,1.11,8.48,3.34,10.97,2.23,2.49,5.06,3.74,8.49,3.74s6.24-1.24,8.44-3.71c2.2-2.47,3.3-6.18,3.3-11.12s-1.07-8.53-3.21-10.93c-2.14-2.4-4.99-3.6-8.53-3.6s-6.4,1.22-8.57,3.65c-2.17,2.43-3.26,6.1-3.26,11Z"/>
    <path class="cls-2" d="M741.89,570.59v-42.61h8.37l17.44,28.46v-28.46h7.99v42.61h-8.63l-17.18-27.79v27.79h-7.99Z"/>
    <path class="cls-2" d="M784.79,570.59v-42.61h31.59v7.21h-22.99v9.45h21.39v7.18h-21.39v11.6h23.81v7.18h-32.41Z"/>
    <path class="cls-2" d="M822.32,556.73l8.37-.81c.5,2.81,1.53,4.87,3.07,6.19,1.54,1.32,3.62,1.98,6.23,1.98,2.77,0,4.86-.59,6.26-1.76,1.41-1.17,2.11-2.54,2.11-4.11,0-1.01-.3-1.86-.89-2.57-.59-.71-1.62-1.32-3.09-1.85-1.01-.35-3.3-.97-6.89-1.86-4.61-1.14-7.85-2.55-9.71-4.21-2.62-2.34-3.92-5.2-3.92-8.58,0-2.17.62-4.2,1.85-6.09,1.23-1.89,3-3.33,5.32-4.32s5.11-1.48,8.39-1.48c5.35,0,9.37,1.17,12.08,3.52,2.7,2.34,4.12,5.47,4.26,9.39l-8.6.38c-.37-2.19-1.16-3.76-2.37-4.72s-3.03-1.44-5.45-1.44-4.46.51-5.87,1.54c-.91.66-1.37,1.54-1.37,2.65,0,1.01.43,1.87,1.28,2.59,1.08.91,3.72,1.86,7.91,2.85s7.28,2.01,9.29,3.07c2.01,1.06,3.58,2.5,4.71,4.33s1.7,4.09,1.7,6.79c0,2.44-.68,4.73-2.03,6.86-1.36,2.13-3.28,3.72-5.75,4.75-2.48,1.04-5.57,1.56-9.27,1.56-5.39,0-9.52-1.25-12.41-3.74-2.89-2.49-4.61-6.12-5.17-10.88Z"/>
    <path class="cls-2" d="M863.94,570.59v-42.61h8.6v42.61h-8.6Z"/>
    <path class="cls-2" d="M919.17,570.59h-9.36l-3.72-9.68h-17.03l-3.52,9.68h-9.13l16.6-42.61h9.1l17.06,42.61ZM903.33,553.73l-5.87-15.81-5.75,15.81h11.63Z"/>
  </g>
</svg>